<?xml version="1.0" encoding="utf-8"?>
<!-- Generator: Adobe Illustrator 21.0.0, SVG Export Plug-In . SVG Version: 6.00 Build 0)  -->
<svg version="1.1" id="Capa_1" xmlns="http://www.w3.org/2000/svg" xmlns:xlink="http://www.w3.org/1999/xlink" x="0px" y="0px"
	 viewBox="0 0 1080 1080" style="enable-background:new 0 0 1080 1080;" xml:space="preserve">
<style type="text/css">
	.st0{fill:#929292;}
	.st1{fill:#FFFFFF;}
</style>
<g>
	<g>
		<path class="st0" d="M496.9,467.8h86.3c16,0,29,13,29,29v86.3c0,16-13,29-29,29h-86.3c-16,0-29-13-29-29v-86.3
			C467.8,480.8,480.8,467.8,496.9,467.8z"/>
	</g>
	<g>
		<g>
			<path class="st1" d="M572.9,516.4c-10.8-8.1-21-7.9-21-7.9l-1,1.2c12.7,3.9,18.6,9.5,18.6,9.5c-7.8-4.3-15.4-6.4-22.5-7.2
				c-5.4-0.6-10.5-0.4-15.1,0.2c-0.5,0-0.8,0.1-1.3,0.1c-2.6,0.2-9,1.2-17,4.7c-2.8,1.3-4.4,2.2-4.4,2.2s6.2-5.9,19.7-9.8l-0.7-0.9
				c0,0-10.3-0.2-21,7.9c0,0-10.8,19.5-10.8,43.6c0,0,6.3,10.9,22.8,11.4c0,0,2.8-3.4,5-6.2c-9.5-2.8-13.1-8.8-13.1-8.8
				s0.7,0.5,2.1,1.3c0.1,0.1,0.1,0.2,0.3,0.2c0.2,0.1,0.4,0.2,0.7,0.4c1.9,1,3.7,1.9,5.5,2.5c3.1,1.2,6.7,2.4,11,3.2
				c5.6,1,12.2,1.4,19.4,0.1c3.5-0.6,7.1-1.6,10.9-3.2c2.6-1,5.5-2.4,8.6-4.4c0,0-3.7,6.1-13.5,8.9c2.2,2.8,4.9,6.1,4.9,6.1
				c16.5-0.5,22.9-11.4,22.9-11.4C583.7,536,572.9,516.4,572.9,516.4z M526,553.1c-4.2,0-7.6-3.7-7.6-8.3c0-4.6,3.4-8.3,7.6-8.3
				c4.3,0,7.7,3.7,7.6,8.3C533.6,549.4,530.3,553.1,526,553.1z M553.3,553.1c-4.2,0-7.6-3.7-7.6-8.3c0-4.6,3.4-8.3,7.6-8.3
				c4.3,0,7.6,3.7,7.6,8.3C561,549.4,557.6,553.1,553.3,553.1z"/>
		</g>
	</g>
</g>
</svg>
