<?xml version="1.0" encoding="utf-8"?>
<!-- Generator: Adobe Illustrator 21.0.0, SVG Export Plug-In . SVG Version: 6.00 Build 0)  -->
<svg version="1.1" id="Capa_1" xmlns="http://www.w3.org/2000/svg" xmlns:xlink="http://www.w3.org/1999/xlink" x="0px" y="0px"
	 viewBox="0 0 1080 1080" style="enable-background:new 0 0 1080 1080;" xml:space="preserve">
<style type="text/css">
	.st0{fill:#929292;}
	.st1{fill:#FFFFFF;}
</style>
<g>
	<g>
		<path class="st0" d="M588.4,372.4h86.3c16,0,29,13,29,29v86.3c0,16-13,29-29,29h-86.3c-16,0-29-13-29-29v-86.3
			C559.4,385.4,572.4,372.4,588.4,372.4z"/>
		<path class="st1" d="M672,460.7c0,6.4-5.2,11.5-11.5,11.5h-57.7c-6.4,0-11.5-5.2-11.5-11.5v-32.3c0-6.4,5.2-11.5,11.5-11.5h57.7
			c6.4,0,11.5,5.2,11.5,11.5V460.7z M623.2,454.4l21.9-11.3l-21.9-11.3L623.2,454.4z"/>
	</g>
	<g>
		<path class="st0" d="M746.7,372.1H833c16,0,29,13,29,29v86.3c0,16-13,29-29,29h-86.3c-16,0-29-13-29-29v-86.3
			C717.6,385.1,730.6,372.1,746.7,372.1z"/>
	</g>
	<g>
		<path class="st0" d="M119.2,372.4h86.3c16,0,29,13,29,29v86.3c0,16-13,29-29,29h-86.3c-16,0-29-13-29-29v-86.3
			C90.2,385.4,103.2,372.4,119.2,372.4z"/>
		<path class="st1" d="M202.8,419.6c-3,1.3-6.2,2.2-9.5,2.6c3.5-2.1,6.1-5.3,7.3-9.2c-3.3,1.9-6.8,3.3-10.5,4
			c-6.3-6.7-16.8-7-23.5-0.7c-3.3,3.1-5.2,7.5-5.2,12.1c0,1.3,0.1,2.5,0.4,3.8c-13.3-0.7-25.8-6.9-34.2-17.2
			c-4.4,7.6-2.1,17.2,5.1,22.1c-2.6-0.1-5.2-0.8-7.5-2.1v0.2c0,7.9,5.6,14.7,13.3,16.3c-2.4,0.7-5,0.8-7.5,0.3
			c2.2,6.8,8.4,11.4,15.5,11.5c-5.9,4.6-13.1,7.1-20.6,7.1c-1.3,0-2.6-0.1-4-0.2c7.6,4.9,16.4,7.5,25.5,7.5
			c30.6,0,47.2-25.3,47.2-47.2c0-0.7,0-1.4,0-2.2C197.8,425.8,200.6,422.9,202.8,419.6z"/>
	</g>
	<g>
		<path class="st0" d="M429.7,372.4h86.3c16,0,29,13,29,29v86.3c0,16-13,29-29,29h-86.3c-16,0-29-13-29-29v-86.3
			C400.6,385.4,413.6,372.4,429.7,372.4z"/>
	</g>
	<g>
		<path class="st0" d="M272.3,372.4h86.3c16,0,29,13,29,29v86.3c0,16-13,29-29,29h-86.3c-16,0-29-13-29-29v-86.3
			C243.3,385.4,256.3,372.4,272.3,372.4z"/>
		<g>
			<path class="st1" d="M276.1,430.7h16.8v53.9h-16.8V430.7z M284.4,404c5.4,0,9.7,4.3,9.7,9.7c0,5.4-4.3,9.7-9.7,9.7
				c-5.4,0-9.7-4.3-9.7-9.7l0,0C274.7,408.3,279.1,404,284.4,404"/>
			<path class="st1" d="M303.3,430.7h16v7.4h0.3c3.3-5.6,9.4-8.9,15.8-8.7c17,0,20.1,11.2,20.1,25.7v29.6h-16.7v-26.2
				c0-6.3-0.1-14.3-8.7-14.3s-10.1,6.8-10.1,13.8v26.7h-16.7L303.3,430.7z"/>
		</g>
	</g>
	<g>
		<g>
			<path class="st1" d="M822.7,420.7c-10.8-8.1-21-7.9-21-7.9l-1,1.2c12.7,3.9,18.6,9.5,18.6,9.5c-7.8-4.3-15.4-6.4-22.5-7.2
				c-5.4-0.6-10.5-0.4-15.1,0.2c-0.5,0-0.8,0.1-1.3,0.1c-2.6,0.2-9,1.2-17,4.7c-2.8,1.3-4.4,2.2-4.4,2.2s6.2-5.9,19.7-9.8l-0.7-0.9
				c0,0-10.3-0.2-21,7.9c0,0-10.8,19.5-10.8,43.6c0,0,6.3,10.9,22.8,11.4c0,0,2.8-3.4,5-6.2c-9.5-2.8-13.1-8.8-13.1-8.8
				s0.7,0.5,2.1,1.3c0.1,0.1,0.1,0.2,0.3,0.2c0.2,0.1,0.4,0.2,0.7,0.4c1.9,1,3.7,1.9,5.5,2.5c3.1,1.2,6.7,2.4,11,3.2
				c5.6,1,12.2,1.4,19.4,0.1c3.5-0.6,7.1-1.6,10.9-3.2c2.6-1,5.5-2.4,8.6-4.4c0,0-3.7,6.1-13.5,8.9c2.2,2.8,4.9,6.1,4.9,6.1
				c16.5-0.5,22.9-11.4,22.9-11.4C833.5,440.2,822.7,420.7,822.7,420.7z M775.8,457.4c-4.2,0-7.6-3.7-7.6-8.3c0-4.6,3.4-8.3,7.6-8.3
				c4.3,0,7.7,3.7,7.6,8.3C783.5,453.6,780.1,457.4,775.8,457.4z M803.1,457.4c-4.2,0-7.6-3.7-7.6-8.3c0-4.6,3.4-8.3,7.6-8.3
				c4.3,0,7.6,3.7,7.6,8.3C810.8,453.6,807.4,457.4,803.1,457.4z"/>
		</g>
	</g>
	<g>
		<g>
			<path class="st0" d="M902.9,372.1h86.3c16,0,29,13,29,29v86.3c0,16-13,29-29,29h-86.3c-16,0-29-13-29-29v-86.3
				C873.9,385.1,886.9,372.1,902.9,372.1z"/>
		</g>
		<g id="XMLID_8_">
			<path id="XMLID_96_" class="st1" d="M980.3,411.8c-23.3,9-46.7,18-70,27c-0.9,0.3-1.6,0.8-2,1.6v1.3c0.6,0.9,1.6,1.3,2.6,1.6
				c4.9,1.8,9.9,3.7,14.8,5.5c1,0.4,1.5,0.9,1.8,1.9c2,6.5,4,12.9,6,19.4c0.8,2.6,2.1,3,4.3,1.3c2.7-2.2,5.4-4.4,8-6.6
				c2.2-1.8,3.1-1.8,5.3-0.2c5.3,3.9,10.6,7.7,16,11.6c2.1,1.5,3.5,1,4-1.6c3.6-17.5,7.3-35,11-52.5c0.6-2.6,0.9-5.3,1.8-7.9v-1.3
				C983,411.4,981.9,411.2,980.3,411.8z M967.2,426.2c-1.6,1.5-3.3,3.1-4.9,4.6c-7.5,7-15,13.9-22.5,20.9c-1.4,1.3-2.2,2.8-2.4,4.8
				c-0.1,1.9-0.5,3.8-0.7,5.6c-0.1,0.6-0.1,1.3-1,1.3c-0.7,0-0.9-0.6-1-1.1c-1.2-4.1-2.4-8.2-3.5-12.3c-0.5-1.8,0.1-3.1,1.8-4.1
				c11-6.8,22-13.6,33-20.4c0.3-0.2,0.6-0.3,0.8-0.4c0.4,0,0.7,0.1,0.8,0.4C967.8,425.7,967.4,425.9,967.2,426.2z"/>
		</g>
	</g>
	<g id="XMLID_11_">
		<path class="st1" d="M516.5,431.4c-2.1-2.4-4.8-3.5-7.9-3.5c-2.4,0-4.6,0.8-6.5,2.3c-0.4,0.3-0.6,0.3-1,0.1
			c-1.6-1-3.2-1.9-4.9-2.6c-4-1.8-8.2-3.1-12.6-3.9c-2.6-0.5-5.1-0.8-7.7-0.9c-0.4,0-0.5-0.2-0.4-0.6c0.6-1.7,1.1-3.5,1.7-5.2
			c1.1-3.6,2.3-7.2,3.4-10.9c0.1-0.4,0.3-0.6,0.7-0.4c1.1,0.3,2.3,0.6,3.4,0.8c3.2,0.8,6.5,1.5,9.7,2.3c1.2,0.3,1,0.2,1.2,1.4
			c0.2,2,1.1,3.7,2.5,5.1c2,1.9,4.4,2.7,7.2,2.4c2.1-0.3,3.9-1.2,5.3-2.8c1.4-1.5,2.1-3.3,2.2-5.3c0.1-2.1-0.4-3.9-1.7-5.6
			c-1.2-1.6-2.7-2.7-4.7-3.2c-2-0.6-4-0.4-5.9,0.4c-1.9,0.8-3.3,2.2-4.2,4c-0.2,0.3-0.4,0.4-0.7,0.3c-0.6-0.2-1.2-0.3-1.8-0.5
			c-2.3-0.5-4.5-1.1-6.8-1.6c-2.3-0.5-4.6-1.1-6.9-1.6c-1.2-0.3-2.1,0.3-2.5,1.5c-1,3.1-2,6.2-2.9,9.4c-1,3.2-2,6.4-3,9.6
			c-0.1,0.4-0.3,0.5-0.7,0.5c-2.5,0-4.9,0.2-7.4,0.6c-3.4,0.5-6.8,1.3-10,2.4c-3.1,1.1-6,2.3-8.8,4.1c-0.9,0.6-0.9,0.6-1.8-0.1
			c-0.1-0.1-0.2-0.1-0.3-0.2c-2.2-1.4-4.5-1.9-7-1.6c-1.8,0.2-3.4,0.8-4.8,1.8c-1.9,1.4-3.3,3.2-4,5.5c-0.6,1.9-0.6,3.9-0.1,5.8
			c0.6,2.5,2.1,4.4,4.2,6c0.3,0.2,0.4,0.5,0.4,0.9c-0.3,1.9-0.3,3.7,0.1,5.6c0.5,3,1.7,5.8,3.4,8.3c1.9,2.7,4.2,5,6.8,7
			c2.8,2.1,5.9,3.8,9.2,5.1c4,1.7,8.3,2.8,12.6,3.4c3.1,0.5,6.2,0.7,9.5,0.7c3.4,0,7-0.3,10.6-0.9c1.6-0.3,3.2-0.6,4.8-1.1
			c3.1-0.9,6.2-2,9.1-3.4c2.8-1.4,5.3-3,7.7-4.9c3.2-2.7,5.9-5.8,7.6-9.8c0.7-1.7,1.2-3.5,1.4-5.4c0.2-1.5,0.2-3,0-4.5
			c0-0.3-0.1-0.6,0.3-0.7c0.5-0.2,0.8-0.6,1.2-0.9c1.9-1.5,3.1-3.5,3.5-5.9C519.6,437.1,518.8,434,516.5,431.4z M504.2,404
			c3,0,5.1,2.3,5.1,5.1c0,2.8-2.4,5.1-5.1,5c-2.8,0-5.1-2.4-5.1-5.1C499.1,406.2,501.4,404,504.2,404z M440.5,432.9
			c-1,0.9-2.1,1.7-3,2.8c-2.1,2.2-3.8,4.7-4.9,7.5c-0.2,0.4-0.3,0.4-0.6,0.1c-1.7-1.8-2.4-4-1.9-6.4c0.7-3.2,3.4-5.4,6.5-5.4
			c1.5,0,2.6,0.3,3.7,0.9C440.8,432.5,440.7,432.7,440.5,432.9z M452.4,445.3c0-3.5,3.1-6.5,6.6-6.4c3.7,0.1,6.4,3.3,6.3,6.6
			c0,3.5-3.1,6.4-6.6,6.3C455.1,451.6,452.4,448.7,452.4,445.3z M487.5,463.8c-2,1.8-4.3,2.9-6.9,3.5c-2,0.5-4,0.7-5.2,0.7
			c-3.4,0.2-5.9,0.1-8.4-0.3c-3.3-0.5-6.3-1.6-8.8-3.9c-0.6-0.5-1-1.1-0.8-1.9c0.2-1.5,1.9-2,3.1-1c0.9,0.8,1.9,1.4,2.9,1.9
			c1.9,0.9,3.9,1.3,6,1.4c2.7,0.2,5.5,0.2,8.2-0.2c2.2-0.3,4.4-0.9,6.3-2.2c0.5-0.3,0.9-0.7,1.4-1.1c1-0.8,2.3-0.5,2.8,0.7
			C488.4,462.3,488.1,463.2,487.5,463.8z M486.7,451.7c-3.5,0-6.4-2.8-6.4-6.4c0-3.5,3-6.4,6.4-6.4c3.7,0,6.5,3,6.4,6.5
			C493.2,448.9,490.3,451.7,486.7,451.7z M513.2,443.5c-0.3,0.3-0.4,0.2-0.6-0.1c-0.9-2.3-2.2-4.4-3.7-6.3c-1.2-1.4-2.5-2.8-4-4
			c-0.5-0.4-0.4-0.4,0.1-0.7c3.6-2.1,8.1-0.7,10,3.2c0.3,0.7,0.5,1.8,0.5,2.7C515.5,440.4,514.8,442.1,513.2,443.5z"/>
	</g>
</g>
</svg>
