<?xml version="1.0" encoding="utf-8"?>
<!-- Generator: Adobe Illustrator 21.0.0, SVG Export Plug-In . SVG Version: 6.00 Build 0)  -->
<svg version="1.1" id="Capa_1" xmlns="http://www.w3.org/2000/svg" xmlns:xlink="http://www.w3.org/1999/xlink" x="0px" y="0px"
	 viewBox="0 0 1080 1080" style="enable-background:new 0 0 1080 1080;" xml:space="preserve">
<style type="text/css">
	.st0{fill:#929292;}
	.st1{fill:#FFFFFF;}
</style>
<g>
	<path class="st0" d="M496.9,467.8h86.3c16,0,29,13,29,29v86.3c0,16-13,29-29,29h-86.3c-16,0-29-13-29-29v-86.3
		C467.8,480.8,480.8,467.8,496.9,467.8z"/>
	<g>
		<path class="st1" d="M500.6,526.2h16.8v53.9h-16.8V526.2z M509,499.4c5.4,0,9.7,4.3,9.7,9.7c0,5.4-4.3,9.7-9.7,9.7
			c-5.4,0-9.7-4.3-9.7-9.7l0,0C499.3,503.7,503.6,499.4,509,499.4"/>
		<path class="st1" d="M527.9,526.2h16v7.4h0.3c3.3-5.6,9.4-8.9,15.8-8.7c17,0,20.1,11.2,20.1,25.7v29.6h-16.7v-26.2
			c0-6.3-0.1-14.3-8.7-14.3s-10.1,6.8-10.1,13.8v26.7H528L527.9,526.2z"/>
	</g>
</g>
</svg>
