<?xml version="1.0" encoding="utf-8"?>
<!-- Generator: Adobe Illustrator 21.0.0, SVG Export Plug-In . SVG Version: 6.00 Build 0)  -->
<svg version="1.1" id="Capa_1" xmlns="http://www.w3.org/2000/svg" xmlns:xlink="http://www.w3.org/1999/xlink" x="0px" y="0px"
	 viewBox="0 0 1080 1080" style="enable-background:new 0 0 1080 1080;" xml:space="preserve">
<style type="text/css">
	.st0{fill:#929292;}
	.st1{fill:#FFFFFF;}
</style>
<g>
	<g>
		<path class="st0" d="M496.9,467.8h86.3c16,0,29,13,29,29v86.3c0,16-13,29-29,29h-86.3c-16,0-29-13-29-29v-86.3
			C467.8,480.8,480.8,467.8,496.9,467.8z"/>
	</g>
	<g id="XMLID_11_">
		<path class="st1" d="M583.7,526.8c-2.1-2.4-4.8-3.5-7.9-3.5c-2.4,0-4.6,0.8-6.5,2.3c-0.4,0.3-0.6,0.3-1,0.1
			c-1.6-1-3.2-1.9-4.9-2.6c-4-1.8-8.2-3.1-12.6-3.9c-2.6-0.5-5.1-0.8-7.7-0.9c-0.4,0-0.5-0.2-0.4-0.6c0.6-1.7,1.1-3.5,1.7-5.2
			c1.1-3.6,2.3-7.2,3.4-10.9c0.1-0.4,0.3-0.6,0.7-0.4c1.1,0.3,2.3,0.6,3.4,0.8c3.2,0.8,6.5,1.5,9.7,2.3c1.2,0.3,1,0.2,1.2,1.4
			c0.2,2,1.1,3.7,2.5,5.1c2,1.9,4.4,2.7,7.2,2.4c2.1-0.3,3.9-1.2,5.3-2.8c1.4-1.5,2.1-3.3,2.2-5.3c0.1-2.1-0.4-3.9-1.7-5.6
			c-1.2-1.6-2.7-2.7-4.7-3.2c-2-0.6-4-0.4-5.9,0.4c-1.9,0.8-3.3,2.2-4.2,4c-0.2,0.3-0.4,0.4-0.7,0.3c-0.6-0.2-1.2-0.3-1.8-0.5
			c-2.3-0.5-4.5-1.1-6.8-1.6c-2.3-0.5-4.6-1.1-6.9-1.6c-1.2-0.3-2.1,0.3-2.5,1.5c-1,3.1-2,6.2-2.9,9.4c-1,3.2-2,6.4-3,9.6
			c-0.1,0.4-0.3,0.5-0.7,0.5c-2.5,0-4.9,0.2-7.4,0.6c-3.4,0.5-6.8,1.3-10,2.4c-3.1,1.1-6,2.3-8.8,4.1c-0.9,0.6-0.9,0.6-1.8-0.1
			c-0.1-0.1-0.2-0.1-0.3-0.2c-2.2-1.4-4.5-1.9-7-1.6c-1.8,0.2-3.4,0.8-4.8,1.8c-1.9,1.4-3.3,3.2-4,5.5c-0.6,1.9-0.6,3.9-0.1,5.8
			c0.6,2.5,2.1,4.4,4.2,6c0.3,0.2,0.4,0.5,0.4,0.9c-0.3,1.9-0.3,3.7,0.1,5.6c0.5,3,1.7,5.8,3.4,8.3c1.9,2.7,4.2,5,6.8,7
			c2.8,2.1,5.9,3.8,9.2,5.1c4,1.7,8.3,2.8,12.6,3.4c3.1,0.5,6.2,0.7,9.5,0.7c3.4,0,7-0.3,10.6-0.9c1.6-0.3,3.2-0.6,4.8-1.1
			c3.1-0.9,6.2-2,9.1-3.4c2.8-1.4,5.3-3,7.7-4.9c3.2-2.7,5.9-5.8,7.6-9.8c0.7-1.7,1.2-3.5,1.4-5.4c0.2-1.5,0.2-3,0-4.5
			c0-0.3-0.1-0.6,0.3-0.7c0.5-0.2,0.8-0.6,1.2-0.9c1.9-1.5,3.1-3.5,3.5-5.9C586.8,532.5,586,529.4,583.7,526.8z M571.4,499.4
			c3,0,5.1,2.3,5.1,5.1c0,2.8-2.4,5.1-5.1,5c-2.8,0-5.1-2.4-5.1-5.1C566.3,501.6,568.6,499.4,571.4,499.4z M507.7,528.3
			c-1,0.9-2.1,1.7-3,2.8c-2.1,2.2-3.8,4.7-4.9,7.5c-0.2,0.4-0.3,0.4-0.6,0.1c-1.7-1.8-2.4-4-1.9-6.4c0.7-3.2,3.4-5.4,6.5-5.4
			c1.5,0,2.6,0.3,3.7,0.9C508,527.9,507.9,528.1,507.7,528.3z M519.6,540.7c0-3.5,3.1-6.5,6.6-6.4c3.7,0.1,6.4,3.3,6.3,6.6
			c0,3.5-3.1,6.4-6.6,6.3C522.3,547,519.6,544.1,519.6,540.7z M554.7,559.2c-2,1.8-4.3,2.9-6.9,3.5c-2,0.5-4,0.7-5.2,0.7
			c-3.4,0.2-5.9,0.1-8.4-0.3c-3.3-0.5-6.3-1.6-8.8-3.9c-0.6-0.5-1-1.1-0.8-1.9c0.2-1.5,1.9-2,3.1-1c0.9,0.8,1.9,1.4,2.9,1.9
			c1.9,0.9,3.9,1.3,6,1.4c2.7,0.2,5.5,0.2,8.2-0.2c2.2-0.3,4.4-0.9,6.3-2.2c0.5-0.3,0.9-0.7,1.4-1.1c1-0.8,2.3-0.5,2.8,0.7
			C555.6,557.7,555.3,558.6,554.7,559.2z M553.9,547.1c-3.5,0-6.4-2.8-6.4-6.4c0-3.5,3-6.4,6.4-6.4c3.7,0,6.5,3,6.4,6.5
			C560.4,544.4,557.5,547.1,553.9,547.1z M580.4,538.9c-0.3,0.3-0.4,0.2-0.6-0.1c-0.9-2.3-2.2-4.4-3.7-6.3c-1.2-1.4-2.5-2.8-4-4
			c-0.5-0.4-0.4-0.4,0.1-0.7c3.6-2.1,8.1-0.7,10,3.2c0.3,0.7,0.5,1.8,0.5,2.7C582.7,535.8,582,537.5,580.4,538.9z"/>
	</g>
</g>
</svg>
