<?xml version="1.0" encoding="utf-8"?>
<!-- Generator: Adobe Illustrator 21.0.0, SVG Export Plug-In . SVG Version: 6.00 Build 0)  -->
<svg version="1.1" id="Capa_1" xmlns="http://www.w3.org/2000/svg" xmlns:xlink="http://www.w3.org/1999/xlink" x="0px" y="0px"
	 viewBox="0 0 1080 1080" style="enable-background:new 0 0 1080 1080;" xml:space="preserve">
<style type="text/css">
	.st0{fill:#929292;}
	.st1{fill:#FFFFFF;}
</style>
<g>
	<g>
		<path class="st0" d="M496.9,467.8h86.3c16,0,29,13,29,29v86.3c0,16-13,29-29,29h-86.3c-16,0-29-13-29-29v-86.3
			C467.8,480.8,480.8,467.8,496.9,467.8z"/>
	</g>
	<g id="XMLID_8_">
		<path id="XMLID_96_" class="st1" d="M574.3,507.5c-23.3,9-46.7,18-70,27c-0.9,0.3-1.6,0.8-2,1.6v1.3c0.6,0.9,1.6,1.3,2.6,1.6
			c4.9,1.8,9.9,3.7,14.8,5.5c1,0.4,1.5,0.9,1.8,1.9c2,6.5,4,12.9,6,19.4c0.8,2.6,2.1,3,4.3,1.3c2.7-2.2,5.4-4.4,8-6.6
			c2.2-1.8,3.1-1.8,5.3-0.2c5.3,3.9,10.6,7.7,16,11.6c2.1,1.5,3.5,1,4-1.6c3.6-17.5,7.3-35,11-52.5c0.6-2.6,0.9-5.3,1.8-7.9v-1.3
			C576.9,507.1,575.8,506.9,574.3,507.5z M561.1,521.9c-1.6,1.5-3.3,3.1-4.9,4.6c-7.5,7-15,13.9-22.5,20.9c-1.4,1.3-2.2,2.8-2.4,4.8
			c-0.1,1.9-0.5,3.8-0.7,5.6c-0.1,0.6-0.1,1.3-1,1.3c-0.7,0-0.9-0.6-1-1.1c-1.2-4.1-2.4-8.2-3.5-12.3c-0.5-1.8,0.1-3.1,1.8-4.1
			c11-6.8,22-13.6,33-20.4c0.3-0.2,0.6-0.3,0.8-0.4c0.4,0,0.7,0.1,0.8,0.4C561.7,521.4,561.4,521.7,561.1,521.9z"/>
	</g>
</g>
</svg>
