<?xml version="1.0" encoding="utf-8"?>
<!-- Generator: Adobe Illustrator 21.0.0, SVG Export Plug-In . SVG Version: 6.00 Build 0)  -->
<svg version="1.1" id="Capa_1" xmlns="http://www.w3.org/2000/svg" xmlns:xlink="http://www.w3.org/1999/xlink" x="0px" y="0px"
	 viewBox="0 0 1080 1080" style="enable-background:new 0 0 1080 1080;" xml:space="preserve">
<style type="text/css">
	.st0{fill:#929292;}
	.st1{fill:#FFFFFF;}
</style>
<g>
	<path class="st0" d="M496.9,467.8h86.3c16,0,29,13,29,29v86.3c0,16-13,29-29,29h-86.3c-16,0-29-13-29-29v-86.3
		C467.8,480.8,480.8,467.8,496.9,467.8z"/>
	<path class="st1" d="M580.4,514.9c-3,1.3-6.2,2.2-9.5,2.6c3.5-2.1,6.1-5.3,7.3-9.2c-3.3,1.9-6.8,3.3-10.5,4
		c-6.3-6.7-16.8-7-23.5-0.7c-3.3,3.1-5.2,7.5-5.2,12.1c0,1.3,0.1,2.5,0.4,3.8c-13.3-0.7-25.8-6.9-34.2-17.2
		c-4.4,7.6-2.1,17.2,5.1,22.1c-2.6-0.1-5.2-0.8-7.5-2.1v0.2c0,7.9,5.6,14.7,13.3,16.3c-2.4,0.7-5,0.8-7.5,0.3
		c2.2,6.8,8.4,11.4,15.5,11.5c-5.9,4.6-13.1,7.1-20.6,7.1c-1.3,0-2.6-0.1-4-0.2c7.6,4.9,16.4,7.5,25.5,7.5
		c30.6,0,47.2-25.3,47.2-47.2c0-0.7,0-1.4,0-2.2C575.4,521.2,578.2,518.3,580.4,514.9z"/>
</g>
</svg>
