<?xml version="1.0" encoding="utf-8"?>
<!-- Generator: Adobe Illustrator 21.0.0, SVG Export Plug-In . SVG Version: 6.00 Build 0)  -->
<svg version="1.1" id="Capa_1" xmlns="http://www.w3.org/2000/svg" xmlns:xlink="http://www.w3.org/1999/xlink" x="0px" y="0px"
	 viewBox="0 0 1080 1080" style="enable-background:new 0 0 1080 1080;" xml:space="preserve">
<style type="text/css">
	.st0{fill:#929292;}
	.st1{fill:#FFFFFF;}
</style>
<g>
	<path class="st0" d="M496.9,467.8h86.3c16,0,29,13,29,29v86.3c0,16-13,29-29,29h-86.3c-16,0-29-13-29-29v-86.3
		C467.8,480.8,480.8,467.8,496.9,467.8z"/>
	<path class="st1" d="M580.4,556.1c0,6.4-5.2,11.5-11.5,11.5h-57.7c-6.4,0-11.5-5.2-11.5-11.5v-32.3c0-6.4,5.2-11.5,11.5-11.5h57.7
		c6.4,0,11.5,5.2,11.5,11.5V556.1z M531.6,549.9l21.9-11.3l-21.9-11.3L531.6,549.9z"/>
</g>
</svg>
